<svg xmlns="http://www.w3.org/2000/svg" width="66" height="64" viewBox="0 0 66 64">
    <g fill="none" fill-rule="evenodd">
        <path d="M-7-4h80v80H-7z" opacity=".545"/>
        <g stroke="#FFF" stroke-width="1.8" transform="translate(0 19)">
            <rect width="63.436" height="4.131" x=".9" y="39.9" rx="2.065"/>
            <path stroke-linecap="round" stroke-linejoin="round" d="M32.969 36.289c-17.928.034-26.917.034-26.969 0 3.887-1.86 3.782-8.752 7.058-16.027S23.542 9.029 32.938 9h-.03c9.42 0 16.74 4.114 19.911 11.144 3.17 7.03 3.17 14.167 7.058 16.027-.052.034-9.021.034-26.908 0v.118z"/>
            <path stroke-linecap="round" d="M33 13c10.997 0 17.166 5.223 18.507 15.669M29 8.796V4h7.523v4.118M25 .5h16M32.424.5v2.583"/>
        </g>
        <path stroke="#FFF" stroke-linecap="round" stroke-width="2" d="M33.139 1v5.896M41 9.5l3.5-5.552M45 15.5l6.507-2M25 9.5l-3.5-5.552M21 15.5l-6.507-2"/>
    </g>
</svg>
