<?xml version="1.0" encoding="utf-8"?>
<!-- Generator: Adobe Illustrator 22.0.1, SVG Export Plug-In . SVG Version: 6.00 Build 0)  -->
<svg version="1.1" id="Layer_1" xmlns="http://www.w3.org/2000/svg" xmlns:xlink="http://www.w3.org/1999/xlink" x="0px" y="0px"
	 viewBox="0 0 96 35" style="enable-background:new 0 0 96 35;" xml:space="preserve">
<style type="text/css">
	.st0{fill:#FFFFFF;}
</style>
<g>
	<path class="st0" d="M33,9.8c0,0.8,0.3,1.5,0.8,1.9c0.5,0.5,1.1,0.8,1.8,0.8c0.7,0,1.4-0.3,1.8-0.8c0.4-0.4,0.8-1.2,0.8-1.9
		c0-0.7-0.3-1.4-0.8-2C36.9,7.3,36.2,7,35.6,7c-0.7,0-1.4,0.3-1.8,0.8C33.2,8.3,33,9,33,9.8z M30.8,17.2V9.8V6c0-0.6,0.5-1,1-1
		c0.5,0,1,0.4,1.1,0.8c0.8-0.5,1.7-0.8,2.6-0.8c2.6,0,4.7,2.2,4.7,4.9c0,2.7-2.1,4.8-4.7,4.8c-1,0-1.9-0.3-2.6-0.8v3.4
		c0,0.5-0.5,1-1.1,1C31.3,18.3,30.8,17.7,30.8,17.2z M43.3,13.5c0,0.6-0.5,1.1-1.1,1.1c-0.5,0-0.9-0.3-1-0.8c0-0.1,0-0.2,0-0.3V2.1
		c0-0.6,0.5-1.1,1.1-1.1c0.6,0,1.1,0.5,1.1,1.1v3.4c0.6-0.3,1.3-0.6,2.1-0.6c2.3,0,4.2,1.9,4.2,4.2v4.4c0,0.6-0.5,1.1-1.1,1.1
		c-0.6,0-1.1-0.5-1.1-1c0,0,0,0,0,0V9.2c0-1.1-0.9-2.1-2.1-2.1c-1.1,0-2.1,1-2.1,2.1L43.3,13.5 M53.1,8.8h5.5
		c-0.2-0.8-1.2-1.9-2.9-2.1C54,6.8,53.2,8,53.1,8.8L53.1,8.8z M51,9.8c0-2.6,2.1-4.8,4.7-4.8c2.5,0,4.5,1.9,4.7,4.5v0.1
		c0,0,0,0.1,0,0.2c-0.1,0.5-0.5,0.8-1,0.8h-6.2c0.1,0.4,0.3,0.9,0.7,1.3c0.4,0.5,1.2,0.8,1.9,0.9c0.7,0.1,1.5-0.1,2-0.5
		c0.4-0.4,1.2-0.4,1.5-0.1c0.3,0.3,0.4,0.9,0,1.3c-0.9,0.9-2.1,1.3-3.5,1.3C53,14.6,51,12.4,51,9.8L51,9.8z M69.8,9v4.6
		c0,0.6-0.4,1-1,1c-0.6,0-1-0.5-1-1V9c0-1.1-0.9-2-2-2c-1.1,0-1.9,0.9-1.9,2v4.6c0,0.1,0,0.1,0,0.2c-0.1,0.5-0.5,0.8-1,0.8
		c-0.6,0-1-0.5-1-1c0,0,0,0,0,0V6c0-0.6,0.5-1,1-1c0,0,0,0,0,0c0.4,0,0.8,0.2,0.9,0.6c0.6-0.4,1.3-0.6,2-0.6C68,4.9,69.8,6.8,69.8,9
		 M73.2,9.8c0,0.8,0.3,1.5,0.7,2.1c0.5,0.5,1.1,0.7,1.9,0.7c0.7,0,1.3-0.3,1.8-0.7c0.5-0.5,0.8-1.2,0.8-2.1c0-0.8-0.3-1.5-0.8-2
		C77.1,7.3,76.4,7,75.8,7c-0.7,0-1.4,0.3-1.9,0.7C73.5,8.3,73.2,9,73.2,9.8z M72.4,13.2c-0.8-0.9-1.3-2.1-1.3-3.4
		c0-1.3,0.5-2.5,1.3-3.4c0.9-0.9,2-1.5,3.3-1.5c1.3,0,2.4,0.6,3.2,1.5c0.9,0.9,1.4,2.1,1.4,3.4c0,1.4-0.5,2.6-1.4,3.4
		c-0.8,0.9-2,1.5-3.2,1.5C74.4,14.7,73.3,14.1,72.4,13.2z M89.8,8.9v4.6c0,0.6-0.5,1-1,1c-0.5,0-1-0.5-1-1V9V8.9
		c0-1.1-0.9-1.9-2-1.9c-1.1,0-2,0.9-2,2v4.6c0,0,0,0.1,0,0.1v0.1c0,0,0,0.1-0.1,0.1V14c-0.2,0.3-0.6,0.6-1,0.6c-0.1,0-0.1,0-0.2,0
		c-0.5-0.1-0.8-0.5-0.8-1V9V6c0-0.6,0.5-1,1-1c0.4,0,0.8,0.2,0.9,0.6c0.6-0.4,1.3-0.6,2.1-0.6c1.2,0,2.3,0.5,3,1.3
		c0.7-0.8,1.8-1.3,3-1.3c2.2,0,4,1.8,4,4.1v4.6c0,0.6-0.5,1-1,1c-0.6,0-1-0.5-1-1V9c0-1.1-0.9-2-2-2C90.8,7,89.9,7.9,89.8,8.9"/>
	<path class="st0" d="M33,26.3c0,0.8,0.3,1.5,0.8,1.9c0.5,0.5,1.1,0.8,1.8,0.8c0.7,0,1.4-0.3,1.8-0.8c0.4-0.4,0.8-1.2,0.8-1.9
		c0-0.8-0.3-1.5-0.8-2c-0.5-0.5-1.1-0.8-1.8-0.8c-0.7,0-1.4,0.3-1.8,0.8C33.2,24.9,33,25.6,33,26.3z M30.8,33.7v-7.4v-3.9
		c0-0.6,0.5-1,1-1c0.5,0,1,0.4,1.1,0.8c0.8-0.5,1.7-0.8,2.6-0.8c2.6,0,4.7,2.2,4.7,4.9c0,2.7-2.1,4.8-4.7,4.8c-1,0-1.9-0.3-2.6-0.8
		v3.4c0,0.5-0.5,1-1.1,1C31.3,34.8,30.8,34.3,30.8,33.7z M42.9,25.3h5.5c-0.2-0.8-1.2-1.9-2.9-2.1C43.9,23.4,43.1,24.6,42.9,25.3
		L42.9,25.3z M40.8,26.3c0-2.6,2.1-4.8,4.7-4.8c2.5,0,4.5,1.9,4.7,4.5V26c0,0,0,0.1,0,0.2c-0.1,0.5-0.5,0.8-1,0.8H43
		c0.1,0.4,0.3,1,0.7,1.3c0.4,0.5,1.2,0.8,1.9,0.9c0.7,0.1,1.5-0.1,2-0.5c0.4-0.4,1.2-0.4,1.5-0.1c0.3,0.3,0.4,0.9,0,1.3
		c-0.9,0.9-2.1,1.3-3.5,1.3C42.9,31.1,40.9,28.9,40.8,26.3z M53.2,26.3c0,0.8,0.3,1.5,0.7,2.1c0.5,0.5,1.1,0.7,1.9,0.7
		c0.7,0,1.3-0.3,1.8-0.7c0.5-0.5,0.8-1.2,0.8-2.1c0-0.8-0.3-1.5-0.8-2c-0.5-0.4-1.1-0.7-1.8-0.7c-0.7,0-1.4,0.3-1.9,0.7
		C53.4,24.8,53.2,25.5,53.2,26.3z M52.4,29.7c-0.8-0.9-1.3-2.1-1.3-3.4c0-1.3,0.5-2.5,1.3-3.4c0.9-0.9,2-1.5,3.3-1.5
		c1.3,0,2.4,0.6,3.2,1.5c0.9,0.9,1.4,2.1,1.4,3.4c0,1.4-0.5,2.6-1.4,3.4c-0.8,0.9-2,1.5-3.2,1.5C54.4,31.2,53.3,30.6,52.4,29.7z
		 M63.4,26.3c0,0.8,0.3,1.5,0.8,1.9c0.5,0.5,1.1,0.8,1.8,0.8c0.7,0,1.4-0.3,1.8-0.8c0.4-0.4,0.8-1.2,0.8-1.9c0-0.8-0.3-1.5-0.8-2
		c-0.5-0.5-1.1-0.8-1.8-0.8c-0.7,0-1.4,0.3-1.8,0.8C63.7,24.9,63.4,25.6,63.4,26.3z M61.3,33.7v-7.4v-3.9c0-0.6,0.5-1,1-1
		c0.5,0,1,0.4,1.1,0.8c0.8-0.5,1.7-0.8,2.6-0.8c2.6,0,4.7,2.2,4.7,4.9c0,2.7-2.1,4.8-4.7,4.8c-1,0-1.9-0.3-2.6-0.8v3.4
		c0,0.5-0.5,1-1.1,1C61.7,34.8,61.3,34.3,61.3,33.7z M72.8,17.6c0.6,0,1.1,0.5,1.1,1.1v11.4c0,0.6-0.5,1.1-1.1,1.1
		c-0.6,0-1.1-0.5-1.1-1.1V18.6C71.8,18.1,72.3,17.6,72.8,17.6 M77.3,25.3h5.5c-0.2-0.8-1.2-1.9-2.9-2.1
		C78.3,23.4,77.5,24.6,77.3,25.3L77.3,25.3z M75.2,26.3c0-2.6,2.1-4.8,4.7-4.8c2.5,0,4.5,1.9,4.7,4.5V26c0,0,0,0.1,0,0.2
		c-0.1,0.5-0.5,0.8-1,0.8h-6.2c0.1,0.4,0.3,1,0.7,1.3c0.4,0.5,1.2,0.8,1.9,0.9c0.7,0.1,1.5-0.1,2-0.5c0.4-0.4,1.2-0.4,1.4-0.1
		c0.3,0.3,0.4,0.9,0,1.3c-0.9,0.9-2.1,1.3-3.5,1.3C77.3,31.1,75.2,28.9,75.2,26.3z M15,29.1c-3.7,2.1-8.2,2.1-11.9,0
		c-1-0.6-2.3-0.2-2.9,0.8c0,0,0,0,0,0c-0.6,1-0.2,2.3,0.8,2.9c2.5,1.4,5.2,2.1,8,2.1c2.8,0,5.6-0.7,8-2.1c1-0.6,1.4-1.9,0.8-2.9
		C17.4,28.9,16.1,28.5,15,29.1C15,29.1,15,29.1,15,29.1 M16.6,15c-2.9,0-5.3-2.4-5.3-5.3s2.4-5.3,5.3-5.3c2.9,0,5.3,2.4,5.3,5.3
		S19.5,15,16.6,15z M16.6,0.1c-5.3,0-9.6,4.3-9.6,9.6c0,0.1,0,0.2,0,0.3c0,0.1,0,0.1,0,0.2v14.1c0,1.2,1,2.1,2.1,2.1
		c1.2,0,2.1-1,2.1-2.1v-6.7c1.6,1,3.4,1.6,5.3,1.6c5.3,0,9.5-4.3,9.5-9.6C26.2,4.4,21.9,0.1,16.6,0.1L16.6,0.1z M85.4,31v-0.9h0.2
		l0.2,0.7l0.2-0.7h0.2V31h-0.1v-0.7L85.9,31h-0.1l-0.2-0.7V31C85.5,31,85.4,31,85.4,31z M84.9,31v-0.7h-0.3v-0.1h0.7v0.1H85V31
		C85,31,84.9,31,84.9,31z"/>
</g>
</svg>
