<svg xmlns="http://www.w3.org/2000/svg" width="73" height="53" viewBox="0 0 73 53">
    <g fill="none" fill-rule="evenodd">
        <path d="M-4-16h83v83H-4z" opacity=".545"/>
        <g stroke="#FFF" stroke-linecap="round" stroke-width="2">
            <path d="M71.068 43.026l-6.436 3.716-6.686 3.86M55.907 32.223l8.51 14.74M51.727 10.954l-12.504 7.219c4.53 13.03 10.002 17.693 16.414 13.991 6.412-3.702 5.108-10.772-3.91-21.21zM53.147 19.29l2.29 3.966M59.152 24.091H42"/>
        </g>
        <g stroke="#FFF" stroke-linecap="round" stroke-width="2">
            <path d="M15.052 51.178l-6.436-3.715-6.686-3.86M16.827 32.647l-8.51 14.74M33.157 18.392l-12.504-7.22c-9.019 10.44-10.322 17.51-3.91 21.212 6.412 3.702 11.883-.962 16.414-13.992zM30 24H13.201M23.347 12.728l-2.29 3.965"/>
        </g>
    </g>
</svg>
