<svg xmlns="http://www.w3.org/2000/svg" width="61" height="59" viewBox="0 0 61 59">
    <g fill="none" fill-rule="evenodd">
        <path d="M-10-9h83v83h-83z" opacity=".545"/>
        <g stroke="#FFF" stroke-linecap="round" stroke-width="2">
            <path d="M59.537 53.792l-7.178 1.923-7.458 1.999M47.689 39.433l4.405 16.44M49.156 17.806L35.21 21.543c1.004 13.759 5.081 19.68 12.233 17.764 7.152-1.917 7.723-9.083 1.713-21.5zM48.37 26.227l1.185 4.423M52.928 32.418L36.361 27.98"/>
        </g>
        <g stroke="#FFF" stroke-linecap="round" stroke-width="2">
            <path d="M16.211 58.012l-7.177-1.923-7.458-1.999M13.13 39.653l-4.405 16.44M25.214 21.657L11.267 17.92c-6.01 12.417-5.438 19.584 1.713 21.5 7.152 1.916 11.23-4.005 12.234-17.763zM23.616 27.89L7.39 32.24M14.272 18.725l-1.185 4.422"/>
        </g>
        <g stroke="#FFF" stroke-linecap="round" stroke-width="2">
            <path d="M30 1.5v3.948M37 5.448l-1.748 2.448M23 5.448l1.748 2.448"/>
        </g>
    </g>
</svg>
